<?xml version="1.0" encoding="utf-8"?>
<!-- Generator: Adobe Illustrator 27.9.1, SVG Export Plug-In . SVG Version: 6.00 Build 0)  -->
<svg version="1.1" id="Capa_1" xmlns="http://www.w3.org/2000/svg" xmlns:xlink="http://www.w3.org/1999/xlink" x="0px" y="0px"
	 viewBox="0 0 50 29" style="enable-background:new 0 0 50 29;" xml:space="preserve">
<style type="text/css">
	.st0{fill:#FFFFFF;}
	.st1{fill:#FAB70A;}
</style>
<path class="st0" d="M44.4,12.2l-0.8-0.3c-2-0.7-2.7-1.2-2.7-1.9c0-0.8,1-1.3,1.9-1.3c1.5,0,2.8,0.5,4,1.6l0.6,0.6l2.3-3.5l-0.5-0.4
	c-1.9-1.5-3.9-2.2-6.3-2.2h-6.7h-1.8h-8.1c-5.4,0-9.4,4-9.4,9.4c0,0.8,0.1,1.6,0.2,2.3L17,16.2l-0.7,0.4c-2,1.2-4,1.7-6.5,1.7
	c-2,0-4.4-0.4-4.4-2.1c0-1.1,0.9-2.4,3.5-2.4h5V9.3H9.3c-2.4,0-3.5-1-3.5-2.1c0-1.7,2.4-2,3.8-2.1c1.5,0,4.1,0.4,6.6,1.5L17,7
	L19.3,3l-0.8-0.4c-3.6-2.1-7.6-2.3-9.1-2.3C4,0.2,0.6,2.8,0.6,7c0,1.7,0.9,3.2,2.3,4.4c-1.8,1.2-2.9,3-2.9,5.2
	c0,4.2,3.3,6.8,8.9,6.8c4,0,7-0.8,9.8-2.5l0.4-0.2c1.6,1.8,4,2.8,6.8,2.8c5.4,0,9.2-3.7,9.2-8.9c0-2.2-0.8-4.2-2.3-5.9h1.4h1.8h0.7
	c-0.1,0.4-0.2,0.9-0.2,1.3c0,3.6,2.7,4.8,5.5,5.8l0.6,0.2c2.1,0.8,2.9,1.1,2.9,1.9c0,0.9-1,1.6-2.5,1.6c-2,0-3.3-0.5-4.6-1.8
	L37.9,17l-2.2,3.4l0.5,0.4c1.9,1.7,4.3,2.6,7,2.6c5,0,6.8-3,6.8-5.5C50,14.3,47.5,13.4,44.4,12.2 M26,19.3c-2.7,0-4.8-2.5-4.8-5.5
	c0-3,2.2-5.5,4.8-5.5c2.7,0,4.8,2.5,4.8,5.5C30.8,16.8,28.7,19.3,26,19.3"/>
<path class="st1" d="M1.5,28.5v-2.3c0,0,0-0.1,0.1-0.1h0.8c0.2,0,0.3,0,0.5,0.1c0.1,0.1,0.3,0.1,0.4,0.3c0.1,0.1,0.2,0.2,0.3,0.4
	c0.1,0.1,0.1,0.3,0.1,0.5c0,0.2,0,0.3-0.1,0.5c-0.1,0.1-0.1,0.3-0.3,0.4c-0.1,0.1-0.2,0.2-0.4,0.3c-0.1,0.1-0.3,0.1-0.5,0.1
	L1.5,28.5C1.6,28.6,1.5,28.5,1.5,28.5 M3.1,27.3c0-0.1,0-0.2-0.1-0.3c0-0.1-0.1-0.2-0.2-0.2c-0.1-0.1-0.2-0.1-0.3-0.2
	c-0.1,0-0.2-0.1-0.3-0.1H2v1.6h0.3c0.1,0,0.2,0,0.3-0.1c0.1,0,0.2-0.1,0.3-0.2C3,27.8,3,27.7,3.1,27.6C3.1,27.5,3.1,27.4,3.1,27.3
	 M4.6,28.5v-2.3c0,0,0-0.1,0.1-0.1h0.4c0,0,0.1,0,0.1,0.1v2.3c0,0,0,0.1-0.1,0.1L4.6,28.5C4.7,28.6,4.6,28.5,4.6,28.5 M6.3,28.2
	C6.3,28.2,6.2,28.1,6.3,28.2c0-0.1,0-0.1,0-0.1l0.2-0.2c0,0,0,0,0.1,0c0,0,0,0,0.1,0c0,0,0.1,0.1,0.1,0.1c0,0,0.1,0.1,0.1,0.1
	c0,0,0.1,0,0.2,0.1c0.1,0,0.1,0,0.2,0c0.1,0,0.1,0,0.2,0c0.1,0,0.1,0,0.1-0.1c0,0,0.1-0.1,0.1-0.1c0,0,0-0.1,0-0.1
	c0-0.1,0-0.1,0-0.1c0,0-0.1-0.1-0.1-0.1c0,0-0.1,0-0.1-0.1c-0.1,0-0.1,0-0.1,0c-0.3-0.1-0.5-0.2-0.6-0.3c-0.1-0.1-0.2-0.3-0.2-0.5
	c0-0.1,0-0.2,0.1-0.3c0-0.1,0.1-0.2,0.2-0.2c0.1-0.1,0.2-0.1,0.3-0.1c0.1,0,0.2,0,0.4,0c0.1,0,0.3,0,0.4,0.1
	c0.1,0.1,0.2,0.2,0.3,0.3c0,0,0,0.1,0,0.1l-0.2,0.2c0,0,0,0-0.1,0c0,0,0,0-0.1,0c0,0-0.1,0-0.1-0.1c0,0-0.1-0.1-0.1-0.1
	c0,0-0.1,0-0.1-0.1c0,0-0.1,0-0.1,0c0,0-0.1,0-0.1,0c0,0-0.1,0-0.1,0c0,0-0.1,0-0.1,0.1c0,0,0,0.1,0,0.1c0,0,0,0.1,0,0.1
	c0,0,0.1,0.1,0.1,0.1C7,27,7,27,7.1,27c0.1,0,0.1,0,0.2,0.1c0.1,0,0.2,0.1,0.3,0.1c0.1,0,0.2,0.1,0.3,0.1C7.9,27.4,8,27.5,8,27.5
	c0,0.1,0.1,0.2,0.1,0.3c0,0.1,0,0.2-0.1,0.3c-0.1,0.1-0.1,0.2-0.2,0.2c-0.1,0.1-0.2,0.1-0.3,0.2c-0.1,0-0.2,0.1-0.3,0.1
	c-0.2,0-0.3,0-0.5-0.1C6.5,28.4,6.4,28.3,6.3,28.2 M8.9,26.5v-0.3c0,0,0-0.1,0.1-0.1h1.7c0,0,0.1,0,0.1,0.1v0.3c0,0,0,0.1-0.1,0.1
	H10v1.9c0,0,0,0.1-0.1,0.1H9.6c0,0-0.1,0-0.1-0.1v-1.9L8.9,26.5C8.9,26.6,8.9,26.5,8.9,26.5 M11.8,28.5v-2.3c0,0,0,0,0,0
	c0,0,0,0,0,0h1c0.1,0,0.2,0,0.3,0.1c0.1,0,0.2,0.1,0.2,0.2c0.1,0.1,0.1,0.2,0.2,0.3c0,0.1,0.1,0.2,0.1,0.3c0,0.1,0,0.3-0.1,0.4
	c-0.1,0.1-0.2,0.2-0.3,0.3l0.4,0.9c0,0,0,0,0,0c0,0,0,0,0,0h-0.4c0,0-0.1,0-0.1-0.1l-0.4-0.8h-0.5v0.8c0,0,0,0.1-0.1,0.1L11.8,28.5
	C11.8,28.6,11.8,28.5,11.8,28.5 M12.7,26.5h-0.5v0.7h0.5c0.1,0,0.2,0,0.3-0.1c0.1-0.1,0.1-0.2,0.1-0.3c0-0.1,0-0.1,0-0.1
	c0,0,0-0.1-0.1-0.1c0,0-0.1-0.1-0.1-0.1C12.9,26.5,12.8,26.5,12.7,26.5 M14.6,28.5v-2.3c0,0,0-0.1,0.1-0.1H15c0,0,0.1,0,0.1,0.1v2.3
	c0,0,0,0.1-0.1,0.1L14.6,28.5C14.6,28.6,14.6,28.5,14.6,28.5 M16.1,26.5v-0.3c0,0,0-0.1,0.1-0.1h1.7c0,0,0.1,0,0.1,0.1v0.3
	c0,0,0,0.1-0.1,0.1h-0.6v1.9c0,0,0,0.1-0.1,0.1h-0.4c0,0-0.1,0-0.1-0.1v-1.9L16.1,26.5C16.1,26.6,16.1,26.5,16.1,26.5 M21.1,27.3
	c0,0.2,0,0.3-0.1,0.5c-0.1,0.2-0.2,0.3-0.3,0.4c-0.1,0.1-0.2,0.2-0.4,0.3c-0.2,0.1-0.3,0.1-0.5,0.1c-0.2,0-0.3,0-0.5-0.1
	c-0.2-0.1-0.3-0.2-0.4-0.3c-0.1-0.1-0.2-0.2-0.3-0.4c-0.1-0.2-0.1-0.3-0.1-0.5c0-0.2,0-0.3,0.1-0.5c0.1-0.2,0.2-0.3,0.3-0.4
	c0.1-0.1,0.2-0.2,0.4-0.3c0.2-0.1,0.3-0.1,0.5-0.1c0.2,0,0.3,0,0.5,0.1c0.2,0.1,0.3,0.2,0.4,0.3c0.1,0.1,0.2,0.2,0.3,0.4
	C21.1,27,21.1,27.2,21.1,27.3 M20.6,27.3c0-0.1,0-0.2-0.1-0.3c0-0.1-0.1-0.2-0.2-0.3c-0.1-0.1-0.1-0.1-0.2-0.2
	c-0.1,0-0.2-0.1-0.3-0.1c-0.1,0-0.2,0-0.3,0.1c-0.1,0-0.2,0.1-0.2,0.2c-0.1,0.1-0.1,0.2-0.2,0.3c0,0.1-0.1,0.2-0.1,0.3
	c0,0.1,0,0.2,0.1,0.3c0,0.1,0.1,0.2,0.2,0.3c0.1,0.1,0.2,0.1,0.2,0.2c0.1,0,0.2,0.1,0.3,0.1c0.1,0,0.2,0,0.3-0.1
	c0.1,0,0.2-0.1,0.2-0.2c0.1-0.1,0.1-0.2,0.2-0.3C20.6,27.5,20.6,27.4,20.6,27.3 M23.9,28.5v-2.3c0,0,0-0.1,0.1-0.1h0.8
	c0.2,0,0.3,0,0.5,0.1c0.1,0.1,0.3,0.1,0.4,0.3c0.1,0.1,0.2,0.2,0.3,0.4c0.1,0.1,0.1,0.3,0.1,0.5c0,0.2,0,0.3-0.1,0.5
	c-0.1,0.1-0.1,0.3-0.3,0.4c-0.1,0.1-0.2,0.2-0.4,0.3c-0.1,0.1-0.3,0.1-0.5,0.1L23.9,28.5C23.9,28.6,23.9,28.5,23.9,28.5 M25.5,27.3
	c0-0.1,0-0.2-0.1-0.3c0-0.1-0.1-0.2-0.2-0.2c-0.1-0.1-0.2-0.1-0.3-0.2c-0.1,0-0.2-0.1-0.3-0.1h-0.3v1.6h0.3c0.1,0,0.2,0,0.3-0.1
	c0.1,0,0.2-0.1,0.3-0.2c0.1-0.1,0.1-0.2,0.2-0.2C25.4,27.5,25.5,27.4,25.5,27.3 M27,28.5v-2.3c0,0,0-0.1,0.1-0.1h1.6
	c0,0,0.1,0,0.1,0.1v0.3c0,0,0,0.1-0.1,0.1h-1.2v0.5h0.9c0,0,0.1,0,0.1,0.1v0.3c0,0,0,0.1-0.1,0.1h-0.9v0.6h1.2c0,0,0.1,0,0.1,0.1
	v0.3c0,0,0,0.1-0.1,0.1L27,28.5C27,28.6,27,28.5,27,28.5 M29.7,28.5v-2.3c0,0,0-0.1,0.1-0.1h1c0.1,0,0.2,0,0.3,0.1
	c0.1,0,0.2,0.1,0.2,0.2c0.1,0.1,0.1,0.2,0.2,0.3c0,0.1,0.1,0.2,0.1,0.3c0,0.1,0,0.2-0.1,0.3c0,0.1-0.1,0.2-0.2,0.2
	c-0.1,0.1-0.1,0.1-0.2,0.2c-0.1,0-0.2,0.1-0.3,0.1h-0.5v0.8c0,0,0,0.1-0.1,0.1L29.7,28.5C29.8,28.6,29.7,28.5,29.7,28.5 M30.7,26.5
	h-0.4v0.7h0.4c0.1,0,0.2,0,0.3-0.1C31,27.1,31,27,31,26.9c0-0.1,0-0.1,0-0.1c0,0,0-0.1-0.1-0.1c0,0-0.1-0.1-0.1-0.1
	C30.8,26.5,30.7,26.5,30.7,26.5 M34.8,27.3c0,0.2,0,0.3-0.1,0.5c-0.1,0.2-0.2,0.3-0.3,0.4c-0.1,0.1-0.2,0.2-0.4,0.3
	c-0.2,0.1-0.3,0.1-0.5,0.1c-0.2,0-0.3,0-0.5-0.1c-0.2-0.1-0.3-0.2-0.4-0.3c-0.1-0.1-0.2-0.2-0.3-0.4c-0.1-0.2-0.1-0.3-0.1-0.5
	c0-0.2,0-0.3,0.1-0.5c0.1-0.2,0.2-0.3,0.3-0.4c0.1-0.1,0.2-0.2,0.4-0.3c0.2-0.1,0.3-0.1,0.5-0.1c0.2,0,0.3,0,0.5,0.1
	c0.2,0.1,0.3,0.2,0.4,0.3c0.1,0.1,0.2,0.2,0.3,0.4C34.8,27,34.8,27.2,34.8,27.3 M34.4,27.3c0-0.1,0-0.2-0.1-0.3
	c0-0.1-0.1-0.2-0.2-0.3c-0.1-0.1-0.2-0.1-0.2-0.2c-0.1,0-0.2-0.1-0.3-0.1c-0.1,0-0.2,0-0.3,0.1c-0.1,0-0.2,0.1-0.2,0.2
	c-0.1,0.1-0.1,0.2-0.2,0.3c0,0.1-0.1,0.2-0.1,0.3c0,0.1,0,0.2,0.1,0.3c0,0.1,0.1,0.2,0.2,0.3c0.1,0.1,0.2,0.1,0.2,0.2
	c0.1,0,0.2,0.1,0.3,0.1c0.1,0,0.2,0,0.3-0.1c0.1,0,0.2-0.1,0.2-0.2c0.1-0.1,0.1-0.2,0.2-0.3C34.3,27.5,34.4,27.4,34.4,27.3
	 M35.9,28.5v-2.3c0,0,0,0,0,0c0,0,0,0,0,0h1c0.1,0,0.2,0,0.3,0.1c0.1,0,0.2,0.1,0.2,0.2c0.1,0.1,0.1,0.2,0.2,0.3
	c0,0.1,0.1,0.2,0.1,0.3c0,0.1,0,0.3-0.1,0.4c-0.1,0.1-0.2,0.2-0.3,0.3l0.4,0.9c0,0,0,0,0,0c0,0,0,0,0,0h-0.4c0,0-0.1,0-0.1-0.1
	l-0.4-0.8h-0.5v0.8c0,0,0,0.1-0.1,0.1L35.9,28.5C35.9,28.6,35.9,28.5,35.9,28.5 M36.9,26.5h-0.5v0.7h0.5c0.1,0,0.2,0,0.3-0.1
	c0.1-0.1,0.1-0.2,0.1-0.3c0-0.1,0-0.1,0-0.1c0,0,0-0.1-0.1-0.1c0,0-0.1-0.1-0.1-0.1C37,26.5,37,26.5,36.9,26.5 M38.6,26.5v-0.3
	c0,0,0-0.1,0.1-0.1h1.7c0,0,0.1,0,0.1,0.1v0.3c0,0,0,0.1-0.1,0.1h-0.6v1.9c0,0,0,0.1-0.1,0.1h-0.4c0,0-0.1,0-0.1-0.1v-1.9L38.6,26.5
	C38.6,26.6,38.6,26.5,38.6,26.5 M41.5,28.5v-2.3c0,0,0-0.1,0.1-0.1h0.4c0,0,0.1,0,0.1,0.1v2.3c0,0,0,0.1-0.1,0.1L41.5,28.5
	C41.5,28.6,41.5,28.5,41.5,28.5 M45.2,26.2l-0.9,2.3c0,0,0,0.1-0.1,0.1h-0.3c0,0-0.1,0-0.1-0.1l-0.9-2.3c0,0,0,0,0-0.1c0,0,0,0,0,0
	h0.4c0,0,0.1,0,0.1,0.1l0.6,1.7l0.6-1.7c0,0,0-0.1,0.1-0.1L45.2,26.2C45.1,26.1,45.2,26.1,45.2,26.2C45.2,26.1,45.2,26.2,45.2,26.2
	 M48.4,27.3c0,0.2,0,0.3-0.1,0.5c-0.1,0.2-0.2,0.3-0.3,0.4c-0.1,0.1-0.2,0.2-0.4,0.3c-0.2,0.1-0.3,0.1-0.5,0.1c-0.2,0-0.3,0-0.5-0.1
	c-0.2-0.1-0.3-0.2-0.4-0.3C46.1,28.1,46,28,46,27.8c-0.1-0.2-0.1-0.3-0.1-0.5c0-0.2,0-0.3,0.1-0.5c0.1-0.2,0.2-0.3,0.3-0.4
	c0.1-0.1,0.2-0.2,0.4-0.3c0.2-0.1,0.3-0.1,0.5-0.1c0.2,0,0.3,0,0.5,0.1c0.2,0.1,0.3,0.2,0.4,0.3c0.1,0.1,0.2,0.2,0.3,0.4
	C48.3,27,48.4,27.2,48.4,27.3 M47.9,27.3c0-0.1,0-0.2-0.1-0.3c0-0.1-0.1-0.2-0.2-0.3c-0.1-0.1-0.2-0.1-0.2-0.2
	c-0.1,0-0.2-0.1-0.3-0.1c-0.1,0-0.2,0-0.3,0.1c-0.1,0-0.2,0.1-0.2,0.2c-0.1,0.1-0.1,0.2-0.2,0.3c0,0.1-0.1,0.2-0.1,0.3
	c0,0.1,0,0.2,0.1,0.3c0,0.1,0.1,0.2,0.2,0.3c0.1,0.1,0.2,0.1,0.2,0.2c0.1,0,0.2,0.1,0.3,0.1c0.1,0,0.2,0,0.3-0.1
	c0.1,0,0.2-0.1,0.2-0.2c0.1-0.1,0.1-0.2,0.2-0.3C47.9,27.5,47.9,27.4,47.9,27.3"/>
</svg>
