<?xml version="1.0" encoding="utf-8"?>
<!-- Generator: Adobe Illustrator 27.9.0, SVG Export Plug-In . SVG Version: 6.00 Build 0)  -->
<svg version="1.1" id="Capa_1" xmlns="http://www.w3.org/2000/svg" xmlns:xlink="http://www.w3.org/1999/xlink" x="0px" y="0px"
	 viewBox="0 0 100 100" style="enable-background:new 0 0 100 100;" xml:space="preserve">
<style type="text/css">
	.st0{fill:#FFFFFF;}
</style>
<g>
	<path class="st0" d="M92.8,25.2c-4.4-7.6-10.4-13.5-18-18C67.2,2.8,59,0.6,50,0.6c-9,0-17.2,2.2-24.8,6.6c-7.6,4.4-13.6,10.4-18,18
		C2.9,32.7,0.7,41,0.7,50c0,9,2.2,17.2,6.6,24.8c4.4,7.6,10.4,13.5,18,18c7.6,4.4,15.8,6.6,24.8,6.6c9,0,17.2-2.2,24.8-6.6
		c7.6-4.4,13.5-10.4,18-18c4.4-7.6,6.6-15.8,6.6-24.8C99.4,41,97.2,32.7,92.8,25.2L92.8,25.2z M78.8,54.1c0,1.1-0.4,2.1-1.2,2.9
		c-0.8,0.8-1.8,1.2-2.9,1.2H58.3v16.5c0,1.1-0.4,2.1-1.2,2.9c-0.8,0.8-1.8,1.2-2.9,1.2h-8.2c-1.1,0-2.1-0.4-2.9-1.2
		c-0.8-0.8-1.2-1.8-1.2-2.9V58.2H25.4c-1.1,0-2.1-0.4-2.9-1.2c-0.8-0.8-1.2-1.8-1.2-2.9v-8.2c0-1.1,0.4-2.1,1.2-2.9
		c0.8-0.8,1.8-1.2,2.9-1.2h16.5V25.3c0-1.1,0.4-2.1,1.2-2.9c0.8-0.8,1.8-1.2,2.9-1.2h8.2c1.1,0,2.1,0.4,2.9,1.2
		c0.8,0.8,1.2,1.8,1.2,2.9v16.5h16.5c1.1,0,2.1,0.4,2.9,1.2c0.8,0.8,1.2,1.8,1.2,2.9V54.1z M78.8,54.1"/>
</g>
</svg>
