<?xml version="1.0" encoding="utf-8"?>
<!-- Generator: Adobe Illustrator 27.9.0, SVG Export Plug-In . SVG Version: 6.00 Build 0)  -->
<svg version="1.1" id="Capa_1" xmlns="http://www.w3.org/2000/svg" xmlns:xlink="http://www.w3.org/1999/xlink" x="0px" y="0px"
	 viewBox="0 0 100 100" style="enable-background:new 0 0 100 100;" xml:space="preserve">
<style type="text/css">
	.st0{fill:#3D3D3B;}
</style>
<g>
	<path class="st0" d="M58.5,87.2c5.6-2.8,10.2-6.7,14-11.7c1.1-1.5,1.5-3.1,1.3-4.9c-0.2-1.8-1.1-3.3-2.6-4.4
		c-1.5-1.1-3.1-1.5-4.9-1.3c-1.8,0.3-3.3,1.1-4.4,2.6c-2.6,3.4-5.7,6-9.4,7.8c-3.7,1.8-7.6,2.8-11.8,2.8c-3.6,0-7-0.7-10.3-2.1
		c-3.3-1.4-6.1-3.3-8.5-5.7c-2.4-2.4-4.3-5.2-5.7-8.5c-1.4-3.3-2.1-6.7-2.1-10.3c0-3.6,0.7-7,2.1-10.3c1.4-3.3,3.3-6.1,5.7-8.5
		c2.4-2.4,5.2-4.3,8.5-5.7c3.3-1.4,6.7-2.1,10.3-2.1c4.2,0,8.1,0.9,11.8,2.8c3.7,1.9,6.8,4.5,9.4,7.9c1.1,1.5,2.6,2.3,4.4,2.6
		c1.8,0.3,3.4-0.2,4.9-1.3c1.5-1.1,2.3-2.5,2.6-4.3c0.2-1.8-0.2-3.5-1.3-4.9c-3.8-5-8.4-9-14-11.7c-5.6-2.8-11.5-4.2-17.8-4.2
		c-5.4,0-10.5,1.1-15.4,3.2c-4.9,2.1-9.1,4.9-12.7,8.5C9,27,6.1,31.2,4,36.1C1.9,41,0.9,46.2,0.9,51.6C0.9,57,1.9,62.1,4,67
		c2.1,4.9,4.9,9.1,8.5,12.7c3.6,3.6,7.8,6.4,12.7,8.5c4.9,2.1,10.1,3.2,15.4,3.2C47,91.4,52.9,90,58.5,87.2L58.5,87.2z M58.5,87.2"
		/>
	<path class="st0" d="M40.3,58.1h39.5v10c0,0.4,0.2,0.8,0.5,1.2c0.3,0.3,0.7,0.5,1.2,0.5c0.5,0,0.9-0.2,1.2-0.5l16.6-16.6
		c0.3-0.3,0.5-0.7,0.5-1.2c0-0.5-0.2-0.9-0.5-1.2L82.7,33.8c-0.4-0.3-0.8-0.5-1.2-0.5c-0.5,0-0.9,0.2-1.2,0.5
		c-0.3,0.3-0.5,0.7-0.5,1.2v10H40.3c-0.5,0-0.8,0.2-1.2,0.5c-0.3,0.3-0.5,0.7-0.5,1.2v9.9c0,0.5,0.2,0.8,0.5,1.2
		C39.4,58,39.8,58.1,40.3,58.1L40.3,58.1z M40.3,58.1"/>
</g>
</svg>
