<?xml version="1.0" encoding="utf-8"?>
<!-- Generator: Adobe Illustrator 27.9.0, SVG Export Plug-In . SVG Version: 6.00 Build 0)  -->
<svg version="1.1" id="Capa_1" xmlns="http://www.w3.org/2000/svg" xmlns:xlink="http://www.w3.org/1999/xlink" x="0px" y="0px"
	 viewBox="0 0 100 100" style="enable-background:new 0 0 100 100;" xml:space="preserve">
<style type="text/css">
	.st0{fill:#3D3D3B;}
	.st1{fill:#FFFFFF;}
</style>
<g>
	<circle class="st0" cx="50" cy="50.1" r="49.3"/>
	<g>
		<g>
			<path class="st1" d="M60.9,20.4c0.6,0.2,1.2,0.3,1.8,0.5c4.6,1.4,7.4,5.8,6.9,10.6c-0.4,4.4-4.1,8.2-8.6,8.8
				c-2.6,0.3-5-0.3-7.1-1.8c-0.3-0.2-0.6-0.3-0.9,0c-3.9,2.3-7.8,4.5-11.7,6.7c-0.1,0.1-0.3,0.2-0.4,0.3c1.4,3.2,1.3,6.4-0.5,9.5
				c4,2.7,8.1,5.4,12.1,8c1.3-1.3,2.7-2.1,4.4-2.6c6.5-1.9,13,3.2,12.7,10c-0.2,4.8-3.8,8.7-8.5,9.4c-0.1,0-0.2,0.1-0.3,0.1
				c-0.7,0-1.4,0-2.1,0c-1.2-0.4-2.5-0.6-3.7-1.2c-4.4-2.2-6.4-7.5-4.7-12.1c0.1-0.4,0.1-0.6-0.3-0.8c-3.9-2.6-7.8-5.2-11.8-7.8
				c-0.3-0.2-0.5-0.2-0.9,0C31.3,62.1,23,58.3,22,51c-0.8-6.1,4.1-11.5,10.2-11.2c2.3,0.1,4.3,0.9,6,2.3c0.1,0.1,0.2,0.1,0.3,0.2
				c0,0,0.1,0,0.1,0.1c4.1-2.4,8.2-4.7,12.2-7c-0.3-1.3-0.8-2.4-1-3.6c-0.8-5.2,3-10.4,8.2-11.2c0.2,0,0.3-0.1,0.5-0.1
				C59.3,20.4,60.1,20.4,60.9,20.4z M65.9,30.3c0-3.4-2.7-6.2-6.1-6.3c-3.5,0-6.3,2.8-6.3,6.3c0,3.4,2.8,6.2,6.2,6.2
				C63.1,36.6,65.9,33.8,65.9,30.3z M65.9,69.9c0-3.4-2.8-6.2-6.2-6.3c-3.4,0-6.2,2.8-6.3,6.1c0,3.5,2.7,6.3,6.1,6.4
				C63.1,76.2,65.9,73.4,65.9,69.9z M25.6,49.7c0,3.5,2.8,6.3,6.3,6.3c3.4,0,6.2-2.8,6.2-6.3c0-3.4-2.8-6.2-6.2-6.2
				C28.4,43.4,25.6,46.2,25.6,49.7z"/>
		</g>
	</g>
</g>
</svg>
