<?xml version="1.0" encoding="utf-8"?>
<!-- Generator: Adobe Illustrator 27.9.0, SVG Export Plug-In . SVG Version: 6.00 Build 0)  -->
<svg version="1.1" id="Capa_1" xmlns="http://www.w3.org/2000/svg" xmlns:xlink="http://www.w3.org/1999/xlink" x="0px" y="0px"
	 viewBox="0 0 100 100" style="enable-background:new 0 0 100 100;" xml:space="preserve">
<style type="text/css">
	.st0{fill:#3D3D3B;}
</style>
<path class="st0" d="M96.2,23.8c-2.5-2.5-5.4-3.7-8.8-3.7h-8.9h-5.9h-1.2v-8.9c0-1.5-0.5-2.7-1.6-3.8c-1-1-2.3-1.6-3.8-1.6H33.9
	c-1.5,0-2.7,0.5-3.8,1.6c-1,1-1.6,2.3-1.6,3.8v8.9h-3.9h-3.2h-8.9c-3.4,0-6.4,1.2-8.8,3.7C1.2,26.2,0,29.2,0,32.6v46.4
	c0,3.4,1.2,6.4,3.7,8.8c2.5,2.5,5.4,3.7,8.8,3.7h8.9h3.2h47.9h5.9h8.9c3.4,0,6.4-1.2,8.8-3.7c2.5-2.5,3.7-5.4,3.7-8.8V32.6
	C99.9,29.2,98.6,26.2,96.2,23.8z M35.7,13h28.5v7.1H35.7V13z M74.9,60.7c0,1-0.4,1.8-1.1,2.5c-0.7,0.7-1.5,1.1-2.5,1.1H57.1v14.3
	c0,1-0.4,1.8-1.1,2.5c-0.7,0.7-1.5,1.1-2.5,1.1h-7.1c-1,0-1.8-0.4-2.5-1.1c-0.7-0.7-1.1-1.5-1.1-2.5V64.3H28.5c-1,0-1.8-0.4-2.5-1.1
	c-0.7-0.7-1.1-1.5-1.1-2.5v-7.1c0-1,0.4-1.8,1.1-2.5c0.7-0.7,1.5-1.1,2.5-1.1h14.3V35.8c0-1,0.4-1.8,1.1-2.5
	c0.7-0.7,1.5-1.1,2.5-1.1h7.1c1,0,1.8,0.4,2.5,1.1c0.7,0.7,1.1,1.5,1.1,2.5V50h14.3c1,0,1.8,0.4,2.5,1.1c0.7,0.7,1.1,1.5,1.1,2.5
	V60.7z"/>
</svg>
