<?xml version="1.0" encoding="utf-8"?>
<!-- Generator: Adobe Illustrator 27.9.0, SVG Export Plug-In . SVG Version: 6.00 Build 0)  -->
<svg version="1.1" id="Capa_1" xmlns="http://www.w3.org/2000/svg" xmlns:xlink="http://www.w3.org/1999/xlink" x="0px" y="0px"
	 viewBox="0 0 100 100" style="enable-background:new 0 0 100 100;" xml:space="preserve">
<style type="text/css">
	.st0{fill:#3D3D3B;}
</style>
<path class="st0" d="M88.3,55.6c-0.1-1.5-0.7-2.7-1.8-3.8c-1.1-1.1-2.3-1.7-3.8-1.8c-0.2,0-0.4,0-0.6,0H80V29.2c0-2-0.2-3.9-0.5-5.8
	c-0.2-0.9-0.4-1.8-0.7-2.7c-0.1-0.4-0.3-0.9-0.4-1.3c-0.5-1.3-1-2.6-1.7-3.8s-1.4-2.4-2.3-3.6c-0.6-0.8-1.2-1.5-1.9-2.2
	c-0.3-0.4-0.7-0.7-1-1.1c-0.7-0.7-1.4-1.4-2.2-2c-1.9-1.6-3.9-2.8-6-3.8c-0.4-0.2-0.8-0.4-1.3-0.6C58.6,0.7,54.9,0,50.9,0l0,0l0,0
	c-7,0-13.2,2.2-18.4,6.6c-0.8,0.6-1.5,1.3-2.2,2c-0.4,0.4-0.7,0.7-1,1.1c-0.7,0.7-1.3,1.5-1.9,2.2c-0.9,1.2-1.6,2.3-2.3,3.6
	s-1.2,2.5-1.7,3.8c-0.2,0.4-0.3,0.9-0.4,1.3c-0.3,0.9-0.5,1.8-0.7,2.7c-0.4,1.9-0.5,3.8-0.5,5.8V50h-2.1c-0.2,0-0.4,0-0.6,0
	c-1.5,0.1-2.7,0.7-3.8,1.8c-1.1,1.1-1.7,2.3-1.8,3.8c0,0.2,0,0.4,0,0.6v37.5c0,0.2,0,0.4,0,0.6c0.1,1.5,0.7,2.7,1.8,3.8
	c1.1,1.1,2.3,1.7,3.8,1.8c0.2,0,0.4,0,0.6,0h62.5c0.2,0,0.4,0,0.6,0c1.5-0.1,2.7-0.7,3.8-1.8c1.1-1.1,1.7-2.3,1.8-3.8
	c0-0.2,0-0.4,0-0.6V56.2C88.4,56,88.4,55.8,88.3,55.6z M34.2,50V29.2c0,0,0,0,0,0c0-4.6,1.6-8.5,4.8-11.7c0,0,0,0,0.1-0.1
	c1.2-1.2,2.5-2.2,3.9-3c0.5-0.3,1-0.5,1.4-0.7c1-0.4,2-0.7,3.1-0.9c0.5-0.1,1.1-0.2,1.6-0.2c0.6-0.1,1.1-0.1,1.7-0.1
	c4.6,0,8.5,1.6,11.8,4.9c0,0,0,0,0.1,0.1c3.2,3.2,4.8,7.2,4.8,11.7c0,0,0,0,0,0V50H34.2z"/>
</svg>
