<?xml version="1.0" encoding="utf-8"?>
<!-- Generator: Adobe Illustrator 27.9.0, SVG Export Plug-In . SVG Version: 6.00 Build 0)  -->
<svg version="1.1" id="Capa_1" xmlns="http://www.w3.org/2000/svg" xmlns:xlink="http://www.w3.org/1999/xlink" x="0px" y="0px"
	 viewBox="0 0 100 100" style="enable-background:new 0 0 100 100;" xml:space="preserve">
<style type="text/css">
	.st0{fill:#3D3D3B;}
</style>
<g>
	<path class="st0" d="M24.8,69.2H7.4c-4,0-7.3-3.3-7.3-7.3V38.1c0-4,3.3-7.3,7.3-7.3h17.3c4,0,7.3,3.3,7.3,7.3v23.7
		C32.1,65.9,28.8,69.2,24.8,69.2z"/>
	<path class="st0" d="M92.6,69.2H75.2c-4,0-7.3-3.3-7.3-7.3V38.1c0-4,3.3-7.3,7.3-7.3h17.3c4,0,7.3,3.3,7.3,7.3v23.7
		C99.9,65.9,96.6,69.2,92.6,69.2z"/>
	<rect x="38.5" y="41" class="st0" width="24.3" height="17.9"/>
</g>
</svg>
