<?xml version="1.0" encoding="utf-8"?>
<!-- Generator: Adobe Illustrator 27.9.0, SVG Export Plug-In . SVG Version: 6.00 Build 0)  -->
<svg version="1.1" id="Capa_1" xmlns="http://www.w3.org/2000/svg" xmlns:xlink="http://www.w3.org/1999/xlink" x="0px" y="0px"
	 viewBox="0 0 100 100" style="enable-background:new 0 0 100 100;" xml:space="preserve">
<style type="text/css">
	.st0{fill:#3D3D3B;}
</style>
<g>
	<path class="st0" d="M75.6,0c1.5,0.5,2.9,1,4,2.2c1.2,1.4,1.9,3,1.9,4.9c0,2.3,0,4.6,0,6.8c0,4-2.8,7-6.6,7.1
		c-3.7,0.2-6.8-2.5-7.1-6.4c-0.2-2.8-0.2-5.6,0-8.4C68,3.1,70,0.9,73.2,0.2c0.2,0,0.3-0.1,0.5-0.2H75.6z"/>
	<path class="st0" d="M26.2,0c2.3,0.5,4.2,1.6,5.2,3.8c0.4,0.9,0.7,1.9,0.7,2.8c0.1,2.9,0.1,5.7-0.1,8.6c-0.3,3.4-3.5,6-7,5.9
		c-3.5-0.1-6.5-2.8-6.7-6.3c-0.1-2.8-0.1-5.7,0-8.5c0.1-2.8,2.1-5.1,4.7-6c0.4-0.1,0.7-0.2,1.1-0.4H26.2z"/>
	<path class="st0" d="M99.2,100H0.8V12h14c0,1.4,0,2.7,0,3.9c0.2,4,2.1,7,5.6,8.9c3.5,1.9,7.1,1.8,10.5-0.4c3.2-2,4.9-5,5-8.8
		c0-1.2,0-2.4,0-3.6H64c0.1,1.7,0,3.4,0.3,5c0.6,4,2.8,6.8,6.5,8.2c3.7,1.5,7.3,1,10.5-1.6c2.6-2.1,3.9-4.9,4-8.2c0-1.1,0-2.3,0-3.4
		h14V100z M92.2,36.7H7.8V93h84.3V36.7z"/>
	<rect x="36" y="44.3" class="st0" width="11" height="9.7"/>
	<rect x="70.6" y="44.2" class="st0" width="10.9" height="9.7"/>
	<rect x="36" y="60.6" class="st0" width="11" height="9.7"/>
	<rect x="54" y="60.6" class="st0" width="11" height="9.7"/>
	<rect x="70.6" y="60.6" class="st0" width="11" height="9.7"/>
	<rect x="36" y="77.2" class="st0" width="11" height="9.7"/>
	<rect x="70.6" y="77.1" class="st0" width="11" height="9.7"/>
	<rect x="54" y="44.3" class="st0" width="11" height="9.6"/>
	<rect x="18.4" y="60.6" class="st0" width="10.9" height="9.7"/>
	<path class="st0" d="M18.4,86.8v-9.6h11c0,0.3,0.1,0.6,0.1,0.9c0,2.6,0,5.2,0,7.8c0,0.7-0.2,1-1,1c-3.1,0-6.2,0-9.3,0
		C18.9,86.9,18.7,86.8,18.4,86.8"/>
	<rect x="54" y="77.1" class="st0" width="11" height="9.6"/>
</g>
</svg>
