<?xml version="1.0" encoding="utf-8"?>
<!-- Generator: Adobe Illustrator 27.9.0, SVG Export Plug-In . SVG Version: 6.00 Build 0)  -->
<svg version="1.1" id="Capa_1" xmlns="http://www.w3.org/2000/svg" xmlns:xlink="http://www.w3.org/1999/xlink" x="0px" y="0px"
	 viewBox="0 0 100 100" style="enable-background:new 0 0 100 100;" xml:space="preserve">
<style type="text/css">
	.st0{fill:#3D3D3B;}
</style>
<g>
	<path class="st0" d="M47.3,100c-1.8-0.2-3.5-0.4-5.3-0.8c-11.3-2.1-20.6-7.6-27.9-16.5C6.4,73.1,3,61.9,4,49.5
		c0.8-9.3,4.2-17.7,10-25c0.3-0.4,0.6-0.7,0.8-1.1c0,0,0.1-0.1,0.1-0.3c-0.4-0.3-0.8-0.7-1.2-1.1c-0.1-0.1-0.2-0.2-0.2-0.3
		c-0.2,0.4-0.4,0.7-0.7,1.1c-0.2,0.3-0.5,0.6-0.8,1c-0.7-0.8-1.3-1.4-1.8-2c1.9-1.9,4-4,6-6c0.5,0.6,1.1,1.2,1.8,2.1
		c-0.5,0.3-1.1,0.8-1.8,1.3c0.6,0.5,0.9,0.8,1.4,1.2c7.8-7.5,17.2-11.9,28.1-13.1V5.3h-2.5V0h14.2v5.2h-2.7v1.9
		c2.8,0.6,5.5,1,8.2,1.8c10.4,3,18.8,8.9,25.1,17.7c6.6,9.2,9.5,19.5,8.4,30.8C94.7,75,85.7,87.8,69.9,95.6c-5,2.5-10.4,3.8-16,4.2
		c-0.2,0-0.4,0.1-0.6,0.2H47.3z M48.3,92.2c0-0.3,0-0.6,0-1c0-1.9,0-3.7,0-5.6c0-1.3,0.8-2.2,1.9-2.2c1.1,0,2,0.9,2,2.2
		c0,1.9,0,3.8,0,5.7c0,0.3,0,0.6,0,0.9C72.9,91.3,88.4,74,88.9,55.5c-0.4,0-0.7,0-1.1,0c-1.8,0-3.5,0-5.3,0c-1.3,0-2.1-0.8-2.2-1.9
		c0-1.1,0.8-2,2.2-2c1.5,0,3,0,4.5,0c0.6,0,1.3,0,1.9,0c-0.9-19.7-17-35.8-36.7-36.7c0,0.3,0,0.6,0,1c0,2,0,4,0,6
		c0,1.4-0.8,2.3-2,2.3c-1.2,0-1.9-0.9-1.9-2.2c0-2,0-4,0-6.1c0-0.3,0-0.6,0-0.9c-21.6,1.2-36.2,19-36.6,36.7c0.3,0,0.7,0,1,0
		c1.7,0,3.5,0,5.2,0c1.3,0,2.2,0.8,2.2,2c0,1.1-0.9,1.9-2.2,2c-0.8,0-1.6,0-2.4,0c-1.3,0-2.5,0-3.8,0C12.1,74.5,28.4,91.6,48.3,92.2
		"/>
	<path class="st0" d="M71.3,72.8c-1.5-0.4-2.7-0.7-4-1.1c-0.4-0.1-0.7-0.4-1-0.6c-4.9-4.2-9.7-8.4-14.6-12.7c-0.5-0.4-1-0.8-1.8-0.8
		c-2.1,0-3.8-2.1-3.6-4.2c0.2-2.2,2.2-3.8,4.4-3.5c2.2,0.3,3.7,2.3,3.3,4.5c-0.1,0.6,0.2,0.9,0.6,1.2c4.3,3.7,8.5,7.4,12.8,11.1
		c1.3,1.1,2.3,2.3,2.9,3.8C70.5,71.3,70.9,71.9,71.3,72.8"/>
</g>
</svg>
