<?xml version="1.0" encoding="utf-8"?>
<!-- Generator: Adobe Illustrator 27.9.0, SVG Export Plug-In . SVG Version: 6.00 Build 0)  -->
<svg version="1.1" id="Capa_1" xmlns="http://www.w3.org/2000/svg" xmlns:xlink="http://www.w3.org/1999/xlink" x="0px" y="0px"
	 viewBox="0 0 100 100" style="enable-background:new 0 0 100 100;" xml:space="preserve">
<style type="text/css">
	.st0{fill:#3D3D3B;}
</style>
<g>
	<path class="st0" d="M49.8,27.9L14.3,57.2c0,0,0,0.1,0,0.2c0,0.1,0,0.1,0,0.2v29.7c0,1.1,0.4,2,1.2,2.8c0.8,0.8,1.7,1.2,2.8,1.2
		h23.7V67.5h15.8v23.7h23.7c1.1,0,2-0.4,2.8-1.2c0.8-0.8,1.2-1.7,1.2-2.8V57.6c0-0.2,0-0.3-0.1-0.4L49.8,27.9z M49.8,27.9"/>
	<path class="st0" d="M98.9,50.6L85.4,39.3V14.1c0-0.6-0.2-1.1-0.6-1.4c-0.4-0.4-0.8-0.6-1.4-0.6H71.6c-0.6,0-1.1,0.2-1.4,0.6
		c-0.4,0.4-0.6,0.8-0.6,1.4v12.1L54.5,13.5c-1.3-1.1-2.9-1.6-4.7-1.6c-1.8,0-3.4,0.5-4.7,1.6l-44.4,37C0.3,50.9,0,51.3,0,51.9
		c0,0.6,0.1,1,0.4,1.5l3.8,4.6c0.3,0.4,0.8,0.6,1.3,0.7c0.5,0,1-0.1,1.5-0.4l42.8-35.7l42.8,35.7c0.3,0.3,0.8,0.4,1.3,0.4h0.2
		c0.5-0.1,1-0.3,1.3-0.7l3.8-4.6c0.3-0.4,0.5-0.9,0.4-1.5C99.6,51.3,99.3,50.9,98.9,50.6L98.9,50.6z M98.9,50.6"/>
</g>
</svg>
