<?xml version="1.0" encoding="utf-8"?>
<!-- Generator: Adobe Illustrator 27.9.0, SVG Export Plug-In . SVG Version: 6.00 Build 0)  -->
<svg version="1.1" id="Capa_1" xmlns="http://www.w3.org/2000/svg" xmlns:xlink="http://www.w3.org/1999/xlink" x="0px" y="0px"
	 viewBox="0 0 100 100" style="enable-background:new 0 0 100 100;" xml:space="preserve">
<style type="text/css">
	.st0{fill:#FFFFFF;}
</style>
<g>
	<path class="st0" d="M95.8,76.4H4.2c-1.1,0-2.1,0.4-2.9,1.2C0.4,78.4,0,79.4,0,80.5v8.3C0,90,0.4,91,1.2,91.8C2.1,92.6,3,93,4.2,93
		h91.6c1.1,0,2.1-0.4,2.9-1.2c0.8-0.8,1.2-1.8,1.2-2.9v-8.3c0-1.1-0.4-2.1-1.2-2.9C97.9,76.8,96.9,76.4,95.8,76.4L95.8,76.4z
		 M95.8,76.4"/>
	<path class="st0" d="M98.7,10.9c-0.8-0.8-1.8-1.2-2.9-1.2H4.2c-1.1,0-2.1,0.4-2.9,1.2C0.4,11.8,0,12.7,0,13.9v8.3
		c0,1.1,0.4,2.1,1.2,2.9C2.1,26,3,26.4,4.2,26.4h91.6c1.1,0,2.1-0.4,2.9-1.2c0.8-0.8,1.2-1.8,1.2-2.9v-8.3
		C100,12.7,99.6,11.8,98.7,10.9L98.7,10.9z M98.7,10.9"/>
	<path class="st0" d="M95.8,43H4.2c-1.1,0-2.1,0.4-2.9,1.2C0.4,45.1,0,46.1,0,47.2v8.3c0,1.1,0.4,2.1,1.2,2.9
		c0.8,0.8,1.8,1.2,2.9,1.2h91.6c1.1,0,2.1-0.4,2.9-1.2c0.8-0.8,1.2-1.8,1.2-2.9v-8.3c0-1.1-0.4-2.1-1.2-2.9
		C97.9,43.4,96.9,43,95.8,43L95.8,43z M95.8,43"/>
</g>
</svg>
