<?xml version="1.0" encoding="utf-8"?>
<!-- Generator: Adobe Illustrator 27.9.0, SVG Export Plug-In . SVG Version: 6.00 Build 0)  -->
<svg version="1.1" id="Capa_1" xmlns="http://www.w3.org/2000/svg" xmlns:xlink="http://www.w3.org/1999/xlink" x="0px" y="0px"
	 viewBox="0 0 100 100" style="enable-background:new 0 0 100 100;" xml:space="preserve">
<style type="text/css">
	.st0{fill:#3D3D3B;}
</style>
<g>
	<path class="st0" d="M97.9,39.1c-1.4-1.4-3.1-2.1-5-2.1V15.7c0-1.9-0.7-3.6-2.1-5c-1.4-1.4-3.1-2.1-5-2.1
		C68.7,22.8,52.1,29.9,36,29.9H9.4c-2.4,0-4.5,0.9-6.3,2.6c-1.7,1.7-2.6,3.8-2.6,6.3v10.7c0,2.4,0.9,4.5,2.6,6.3
		c1.7,1.7,3.8,2.6,6.3,2.6h6.8c-0.6,2-1,4-1.2,6.1c-0.2,2.1-0.2,3.9-0.2,5.5c0.1,1.6,0.3,3.4,0.8,5.6c0.5,2.2,0.9,3.8,1.3,4.9
		c0.3,1.1,0.9,2.9,1.8,5.2c0.8,2.4,1.4,4,1.6,4.9c1.7,1.6,4.1,2.6,7.3,3.1c3.2,0.5,6.3,0.3,9.4-0.6c3.1-0.9,5.1-2.5,6.2-4.6
		c-1.4-1.1-2.5-2-3.4-2.8c-0.9-0.8-1.8-1.7-2.7-2.8c-0.9-1.1-1.5-2.1-1.9-3.1c-0.3-0.9-0.4-2-0.3-3.2c0.1-1.2,0.5-2.4,1.3-3.6
		c-1.4-1.4-2.1-3.2-2.2-5.1c-0.1-2,0.5-3.8,1.7-5.6c1.2-1.7,2.9-3,5.1-3.7c14.6,1.2,29.7,8.3,45.1,21.1c1.9,0,3.6-0.7,5-2.1
		c1.4-1.4,2.1-3.1,2.1-5V51.2c2,0,3.6-0.7,5-2.1c1.4-1.4,2.1-3.1,2.1-5S99.3,40.5,97.9,39.1L97.9,39.1z M85.8,70.5
		C71.3,59.5,57.1,53.1,43.1,51.6v-15c13.8-1.5,28.1-7.9,42.6-19V70.5z M85.8,70.5"/>
</g>
</svg>
