<?xml version="1.0" encoding="utf-8"?>
<!-- Generator: Adobe Illustrator 27.9.0, SVG Export Plug-In . SVG Version: 6.00 Build 0)  -->
<svg version="1.1" id="Capa_1" xmlns="http://www.w3.org/2000/svg" xmlns:xlink="http://www.w3.org/1999/xlink" x="0px" y="0px"
	 viewBox="0 0 100 100" style="enable-background:new 0 0 100 100;" xml:space="preserve">
<style type="text/css">
	.st0{fill:#3D3D3B;}
</style>
<path class="st0" d="M32.3,42.8c4.9,4.9,10.8,7.3,17.7,7.3c6.9,0,12.8-2.4,17.7-7.3C72.5,37.9,75,32,75,25.1s-2.4-12.8-7.3-17.7
	C62.8,2.6,56.9,0.1,50,0.1c-6.9,0-12.8,2.4-17.7,7.3C27.5,12.3,25,18.2,25,25.1S27.5,37.9,32.3,42.8L32.3,42.8z M32.3,42.8"/>
<path class="st0" d="M94.6,69.3c-0.5-2.5-1-4.9-1.7-7.1c-0.7-2.2-1.6-4.3-2.8-6.3c-1.2-2.1-2.5-3.8-4-5.3c-1.5-1.5-3.4-2.6-5.6-3.5
	c-2.2-0.9-4.6-1.3-7.2-1.3c-0.4,0-1.4,0.5-2.8,1.4c-1.4,0.9-3,2-4.7,3.1c-1.7,1.1-4,2.2-7,3.1c-2.9,0.9-5.8,1.4-8.8,1.4
	c-2.9,0-5.9-0.5-8.8-1.4c-2.9-0.9-5.2-2-7-3.1c-1.7-1.1-3.3-2.2-4.7-3.1c-1.4-0.9-2.4-1.4-2.8-1.4c-2.6,0-5.1,0.4-7.3,1.3
	c-2.2,0.9-4,2-5.6,3.5c-1.5,1.4-2.9,3.2-4,5.3c-1.2,2.1-2.1,4.2-2.8,6.3c-0.7,2.2-1.3,4.5-1.7,7.1c-0.5,2.5-0.8,4.9-0.9,7.1
	c-0.2,2.2-0.2,4.4-0.2,6.7c0,5.2,1.6,9.3,4.7,12.3c3.2,3,7.4,4.5,12.6,4.5h56.8c5.2,0,9.4-1.5,12.6-4.5c3.2-3,4.7-7.1,4.7-12.3
	c0-2.3-0.1-4.5-0.2-6.7C95.4,74.2,95.1,71.9,94.6,69.3L94.6,69.3z M94.6,69.3"/>
</svg>
