<?xml version="1.0" encoding="utf-8"?>
<!-- Generator: Adobe Illustrator 27.5.0, SVG Export Plug-In . SVG Version: 6.00 Build 0)  -->
<svg version="1.1" id="Capa_1" xmlns="http://www.w3.org/2000/svg" xmlns:xlink="http://www.w3.org/1999/xlink" x="0px" y="0px"
	 viewBox="0 0 28.8 50" style="enable-background:new 0 0 28.8 50;" xml:space="preserve">
<style type="text/css">
	.st0{fill:#3C3C3B;}
</style>
<path class="st0" d="M15.9,0C16,1.2,16.1,2.7,16,3.7c0,0.5,0.1,0.6,0.6,0.7c2.5,0.3,4.9,0.9,6.9,2.7c1.7,1.6,3.1,3.3,3.5,5.7
	c0.3,1.8-0.8,3.3-2.5,3.7c-1.8,0.4-3.4-0.4-4-2.2c-0.3-0.8-0.5-1.5-1-2.5c-0.7-1.2-0.9-1.8-3.5-2.2c0,0.3,0,1,0,1.2c0,3.2,0,5.8,0,9
	c0,0.4,0.1,0.5,0.5,0.6c1.8,0.5,3.7,1,5.4,1.7c4.2,1.7,6.7,5.7,6.5,10c-0.1,2.7-1.1,5.2-3,7.2c-1.7,1.8-3.8,2.9-6.2,3.5
	c-1,0.3-2,0.4-3.1,0.6c0,0.2,0,0.4,0,0.6c0,2.3,0.1,1.9,0,4.2c0,0.8,0.1,1.2,0,1.8c-0.3,0-3.2,0-3.5,0c0-0.5,0-1.2,0-2.1
	c0-2.2,0-1.6,0-3.9c0-0.2,0-0.4,0-0.5c-1.3-0.3-2.6-0.5-3.9-0.9c-3.8-1.3-6.7-3.6-8.1-7.3c-0.4-1-0.6-2-0.5-3.1
	c0.1-1.4,1.4-2.7,2.9-2.9c1.8-0.2,3.2,0.5,3.8,2c0.4,1,0.7,2,1.1,2.9c0.8,2,2.4,3.3,4.7,3.8c0-4,0-8,0-12c-0.7-0.2-1.5-0.4-2.3-0.7
	c-2-0.7-4-1.4-5.7-2.7c-2.1-1.7-3.2-3.8-3.4-6.4c-0.2-2,0-3.9,0.8-5.7C3.1,8,5.1,6.3,7.8,5.3c1.3-0.5,2.8-0.7,4.2-1
	c0.2,0,0.4-0.1,0.6-0.1c0-0.8,0-1.6,0-2.5c0-0.4,0-1.3,0-1.8H15.9z M16,38.3c1.4-0.1,2.9-0.9,4-1.9c2.2-2,2.3-6.1-0.5-7.8
	c-1.1-0.6-2.3-1.2-3.5-1.5C16,30.8,16,34.5,16,38.3z M12.5,19.3c0-3.3,0-6.3,0-9.7c-1.1,0.1-2.2,0.5-3.1,1.1
	c-0.9,0.7-1.4,1.6-1.6,2.7c-0.2,1.5-0.1,3,1.1,4.1C10,18.3,11.2,18.8,12.5,19.3z"/>
</svg>
