<?xml version="1.0" encoding="utf-8"?>
<!-- Generator: Adobe Illustrator 27.9.0, SVG Export Plug-In . SVG Version: 6.00 Build 0)  -->
<svg version="1.1" id="Capa_1" xmlns="http://www.w3.org/2000/svg" xmlns:xlink="http://www.w3.org/1999/xlink" x="0px" y="0px"
	 viewBox="0 0 100 100" style="enable-background:new 0 0 100 100;" xml:space="preserve">
<style type="text/css">
	.st0{fill:#3D3D3B;}
</style>
<g>
	<path class="st0" d="M93.9,100H6.1l0-6.5c0-5.2,0-10.4,0-15.7c0-0.9,0.2-1.8,0.6-2.9c0.9-2.3,2.6-3.8,4-4.9
		c4.3-3.4,9.3-5.4,13.2-6.7c2.5-0.8,5.1-1.6,7.5-2.3c1.3-0.4,2.5-0.7,3.8-1.1c1.2-0.4,1.4-0.7,1.4-0.9c0.2-0.5,0.4-1.1,0.4-1.8
		c-1.4,0.1-2.7,0.2-4,0.2c-3.1,0.1-6.2,0.2-9.3,0.1c-1.1,0-3.7-0.1-4.9-2.2c-1.1-2.1,0.2-4.4,0.8-5.3l0.2-0.4c1.8-2.9,3.1-6,3.9-9.2
		c1.1-4.4,1.7-9.3,1.8-14.9c0-3.2,0.3-6.9,1.6-10.5C29.5,8.5,34,3.9,40.5,1.6c4-1.5,8.4-1.9,13.5-1.3c10.9,1.3,18.8,9.2,20.1,20.1
		c0.3,2.3,0.4,4.5,0.4,6.7c0,1.2,0.1,2.5,0.2,3.7c0.3,4,1,7.9,2.1,11.5c0.9,3.1,2.5,6,4.1,8.6c0.9,1.5,1.1,3,0.5,4.2
		c-0.6,1.3-1.8,2-3.5,2.3c-1.2,0.2-2.6,0.4-4,0.3c-2.6-0.1-5.1-0.2-7.7-0.3l-2-0.1c-0.4,0-0.7,0-1.1-0.1c0,0.3,0,0.7,0.1,1
		c0.1,0.6,0.2,1.2,1.5,1.7c0.8,0.3,1.6,0.5,2.4,0.7c4.1,1,8.9,2.4,13.6,4.4c3.4,1.5,7.4,3.4,10.5,6.6c1.8,1.9,2.7,3.9,2.8,6.1
		c0,4.8,0,9.6,0,14.4L93.9,100z M11.5,94.6h77l0-2.4c0-4.8,0-9.6,0-14.3c0-0.5-0.1-1.2-1.3-2.4c-2.4-2.5-5.7-4.1-8.8-5.4
		c-4.3-1.9-8.9-3.1-12.7-4.1c-1-0.2-1.9-0.5-2.9-0.9c-3-1-4.8-3.2-5.2-6.1c-0.1-1-0.1-2.1-0.2-3.1c0-0.4,0-0.9,0-1.3l-0.1-3l4.3,0.3
		c0.9,0.1,1.7,0.1,2.6,0.2l2.1,0.1c2.5,0.1,5,0.3,7.6,0.3c0.5,0,1,0,1.5-0.1c-1.5-2.6-2.9-5.4-3.9-8.5c-1.2-4-2-8.3-2.3-12.8
		c-0.1-1.3-0.1-2.6-0.2-3.8c-0.1-2.2-0.2-4.2-0.4-6.2c-1-8.6-6.9-14.5-15.4-15.4c-4.3-0.5-7.9-0.2-11.1,1
		c-4.9,1.8-8.3,5.2-10.1,10.4c-1.1,2.9-1.2,6-1.3,8.7c-0.1,6.1-0.7,11.4-2,16.2c-0.9,3.6-2.4,7.1-4.4,10.4c2.7,0.1,5.5,0,8.2-0.1
		c1.6,0,3-0.2,4.6-0.3l4.8-0.3l0.2,2.6c0.2,2,0.4,4.6-0.8,7.1c-0.8,1.9-2.5,3.2-4.8,3.9c-1.3,0.4-2.6,0.7-3.8,1.1
		c-2.4,0.7-4.9,1.4-7.3,2.2c-3.4,1.2-7.9,2.9-11.6,5.8c-1.3,1-2,1.8-2.3,2.7c-0.2,0.5-0.2,0.8-0.2,0.9c0,5.2,0,10.4,0,15.6
		L11.5,94.6z"/>
</g>
</svg>
