<?xml version="1.0" encoding="utf-8"?>
<!-- Generator: Adobe Illustrator 27.9.0, SVG Export Plug-In . SVG Version: 6.00 Build 0)  -->
<svg version="1.1" id="Capa_1" xmlns="http://www.w3.org/2000/svg" xmlns:xlink="http://www.w3.org/1999/xlink" x="0px" y="0px"
	 viewBox="0 0 100 100" style="enable-background:new 0 0 100 100;" xml:space="preserve">
<style type="text/css">
	.st0{fill:#3D3D3B;}
</style>
<g>
	<path class="st0" d="M93.1,26.9c-4.5-5.5-10.5-9.8-18.2-13c-7.7-3.2-16-4.8-25.1-4.8c-6.8,0-13.2,0.9-19.4,2.8
		c-6.2,1.9-11.5,4.4-15.9,7.6c-4.5,3.2-8,7-10.6,11.4c-2.6,4.4-4,9-4,13.9c0,5.6,1.7,10.8,5,15.7c3.4,4.9,8,9,13.8,12.3
		c-0.4,1.5-0.9,2.9-1.4,4.2c-0.6,1.3-1.1,2.4-1.5,3.3c-0.4,0.9-1,1.8-1.8,2.8c-0.8,1-1.3,1.8-1.7,2.2c-0.4,0.4-1,1.1-1.9,2.1
		c-0.9,1-1.5,1.6-1.7,1.9c0,0-0.2,0.2-0.4,0.5c-0.3,0.3-0.4,0.5-0.4,0.5l-0.3,0.5c-0.2,0.3-0.3,0.5-0.3,0.5c0,0.1,0,0.3-0.1,0.6
		c-0.1,0.3-0.1,0.5,0,0.7v0.1c0.2,0.7,0.5,1.2,1,1.6c0.5,0.4,1.1,0.6,1.7,0.5c2.4-0.3,4.5-0.7,6.4-1.2c9.7-2.5,18.3-7,25.6-13.5
		c2.8,0.3,5.5,0.4,8.1,0.4c9.1,0,17.4-1.6,25.1-4.8c7.7-3.2,13.7-7.5,18.2-13c4.5-5.5,6.7-11.5,6.7-17.9
		C99.8,38.4,97.6,32.4,93.1,26.9L93.1,26.9z M93.1,26.9"/>
</g>
</svg>
