<?xml version="1.0" encoding="utf-8"?>
<!-- Generator: Adobe Illustrator 27.9.0, SVG Export Plug-In . SVG Version: 6.00 Build 0)  -->
<svg version="1.1" id="Capa_1" xmlns="http://www.w3.org/2000/svg" xmlns:xlink="http://www.w3.org/1999/xlink" x="0px" y="0px"
	 viewBox="0 0 100 100" style="enable-background:new 0 0 100 100;" xml:space="preserve">
<style type="text/css">
	.st0{fill:#3D3D3B;}
</style>
<path class="st0" d="M33,42.7c4.8,4.8,10.6,7.2,17.4,7.2c6.8,0,12.6-2.4,17.4-7.2c4.8-4.8,7.2-10.6,7.2-17.4s-2.4-12.6-7.2-17.4
	c-4.8-4.8-10.6-7.2-17.4-7.2c-6.8,0-12.6,2.4-17.4,7.2c-4.8,4.8-7.2,10.6-7.2,17.4S28.2,37.9,33,42.7L33,42.7z M33,42.7"/>
<path class="st0" d="M94.5,69c-0.5-2.5-1-4.8-1.7-7c-0.7-2.1-1.6-4.2-2.8-6.3c-1.2-2-2.5-3.8-4-5.2c-1.5-1.4-3.3-2.6-5.5-3.4
	c-2.2-0.9-4.5-1.3-7.2-1.3c-0.4,0-1.3,0.5-2.8,1.4c-1.4,0.9-3,1.9-4.7,3.1c-1.7,1.1-4,2.2-6.9,3.1c-2.9,0.9-5.8,1.4-8.7,1.4
	c-2.9,0-5.8-0.5-8.7-1.4c-2.9-0.9-5.2-1.9-6.9-3.1c-1.7-1.1-3.3-2.2-4.7-3.1c-1.4-0.9-2.3-1.4-2.8-1.4c-2.6,0-5,0.4-7.2,1.3
	c-2.2,0.9-4,2-5.5,3.4c-1.5,1.4-2.8,3.2-4,5.2c-1.2,2-2.1,4.1-2.8,6.3c-0.7,2.1-1.3,4.5-1.7,7c-0.5,2.5-0.8,4.8-0.9,7
	c-0.1,2.2-0.2,4.4-0.2,6.6c0,5.1,1.6,9.2,4.7,12.2c3.1,3,7.3,4.5,12.5,4.5h56.1c5.2,0,9.3-1.5,12.5-4.5c3.1-3,4.7-7,4.7-12.2
	c0-2.3-0.1-4.5-0.2-6.6C95.3,73.8,95,71.5,94.5,69L94.5,69z M94.5,69"/>
</svg>
