<?xml version="1.0" encoding="utf-8"?>
<!-- Generator: Adobe Illustrator 27.9.0, SVG Export Plug-In . SVG Version: 6.00 Build 0)  -->
<svg version="1.1" id="Capa_1" xmlns="http://www.w3.org/2000/svg" xmlns:xlink="http://www.w3.org/1999/xlink" x="0px" y="0px"
	 viewBox="0 0 100 100" style="enable-background:new 0 0 100 100;" xml:space="preserve">
<style type="text/css">
	.st0{fill:#3D3D3B;}
</style>
<path class="st0" d="M93.1,25.1c-4.5-7.6-10.5-13.7-18.2-18.2c-7.6-4.5-16-6.7-25-6.7c-9.1,0-17.4,2.2-25,6.7
	c-7.6,4.5-13.7,10.5-18.2,18.2c-4.5,7.6-6.7,16-6.7,25c0,9,2.2,17.4,6.7,25c4.5,7.6,10.5,13.7,18.2,18.2c7.6,4.5,16,6.7,25,6.7
	c9.1,0,17.4-2.2,25-6.7c7.6-4.5,13.7-10.5,18.2-18.2c4.5-7.6,6.7-16,6.7-25C99.8,41.1,97.5,32.7,93.1,25.1z M70.1,52.9L43.5,69.6
	c-0.5,0.3-1.1,0.5-1.8,0.5c-0.5,0-1.1-0.1-1.6-0.4c-1.1-0.6-1.7-1.6-1.7-2.9V33.5c0-1.3,0.6-2.3,1.7-2.9c1.2-0.6,2.3-0.6,3.4,0.1
	l26.6,16.6c1,0.6,1.6,1.5,1.6,2.8C71.6,51.4,71.1,52.3,70.1,52.9z"/>
</svg>
