<?xml version="1.0" encoding="utf-8"?>
<!-- Generator: Adobe Illustrator 27.9.0, SVG Export Plug-In . SVG Version: 6.00 Build 0)  -->
<svg version="1.1" id="Capa_1" xmlns="http://www.w3.org/2000/svg" xmlns:xlink="http://www.w3.org/1999/xlink" x="0px" y="0px"
	 viewBox="0 0 100 100" style="enable-background:new 0 0 100 100;" xml:space="preserve">
<style type="text/css">
	.st0{fill:#3D3D3B;}
</style>
<g>
	<g>
		<path class="st0" d="M34.8,50.1l38.8-38.8c0.7-0.7,1-1.4,1-2.3c0-0.9-0.3-1.6-1-2.3l-4.9-4.9c-0.7-0.7-1.4-1-2.3-1
			c-0.9,0-1.6,0.3-2.3,1l-46,46c-0.7,0.7-1,1.4-1,2.3c0,0.9,0.3,1.6,1,2.3l46,46c0.7,0.7,1.4,1,2.3,1c0.9,0,1.6-0.3,2.3-1l4.9-4.9
			c0.7-0.7,1-1.4,1-2.3c0-0.9-0.3-1.6-1-2.3L34.8,50.1z M34.8,50.1"/>
	</g>
</g>
</svg>
